<svg xmlns="http://www.w3.org/2000/svg" viewBox="0 0 471.1 540.8">
<!-- Mitsu seal "Tam Mật Khối" (soft) — rounded strokes, 勤/律/創 -->
<g stroke="#B4382B" stroke-width="16.8" stroke-linecap="butt" fill="none"><line x1="374.1" y1="100.4" x2="426.1" y2="130.4"/><line x1="209.6" y1="25.4" x2="339.5" y2="100.4"/><line x1="174.9" y1="45.4" x2="304.8" y2="120.4"/><line x1="140.3" y1="65.4" x2="270.2" y2="140.4"/><line x1="270.2" y1="160.4" x2="287.5" y2="170.4"/><line x1="105.7" y1="85.4" x2="218.2" y2="150.4"/><line x1="71.0" y1="105.4" x2="183.6" y2="170.4"/><line x1="36.4" y1="125.4" x2="149.0" y2="190.4"/><line x1="218.2" y1="230.4" x2="235.6" y2="240.4"/><line x1="261.5" y1="25.4" x2="166.3" y2="80.4"/><line x1="200.9" y1="100.4" x2="97.0" y2="160.4"/><line x1="330.8" y1="65.4" x2="235.6" y2="120.4"/><line x1="270.2" y1="160.4" x2="183.6" y2="210.4"/><line x1="400.1" y1="105.4" x2="287.5" y2="170.4"/><line x1="434.7" y1="125.4" x2="235.6" y2="240.4"/><line x1="88.3" y1="195.4" x2="157.6" y2="235.4"/><line x1="192.3" y1="255.4" x2="209.6" y2="265.4"/><line x1="10.4" y1="170.4" x2="53.7" y2="195.4"/><line x1="88.3" y1="235.4" x2="209.6" y2="305.4"/><line x1="10.4" y1="210.4" x2="53.7" y2="235.4"/><line x1="88.3" y1="275.4" x2="209.6" y2="345.4"/><line x1="88.3" y1="315.4" x2="209.6" y2="385.4"/><line x1="88.3" y1="355.4" x2="209.6" y2="425.4"/><line x1="88.3" y1="395.4" x2="209.6" y2="465.4"/><line x1="10.4" y1="390.4" x2="53.7" y2="415.4"/><line x1="88.3" y1="435.4" x2="209.6" y2="505.4"/><line x1="19.1" y1="255.4" x2="19.1" y2="405.4"/><line x1="53.7" y1="175.4" x2="53.7" y2="425.4"/><line x1="157.6" y1="235.4" x2="157.6" y2="485.4"/><line x1="244.2" y1="275.4" x2="382.8" y2="195.4"/><line x1="278.9" y1="295.4" x2="348.1" y2="255.4"/><line x1="278.9" y1="335.4" x2="348.1" y2="295.4"/><line x1="244.2" y1="395.4" x2="382.8" y2="315.4"/><line x1="278.9" y1="415.4" x2="348.1" y2="375.4"/><line x1="244.2" y1="515.4" x2="382.8" y2="435.4"/><line x1="434.7" y1="405.4" x2="460.7" y2="390.4"/><line x1="244.2" y1="275.4" x2="244.2" y2="525.4"/><line x1="278.9" y1="295.4" x2="278.9" y2="335.4"/><line x1="278.9" y1="415.4" x2="278.9" y2="505.4"/><line x1="348.1" y1="255.4" x2="348.1" y2="295.4"/><line x1="348.1" y1="375.4" x2="348.1" y2="465.4"/><line x1="382.8" y1="195.4" x2="382.8" y2="445.4"/><line x1="417.4" y1="175.4" x2="417.4" y2="395.4"/><line x1="452.1" y1="155.4" x2="452.1" y2="405.4"/></g><g fill="#B4382B"><circle cx="374.1" cy="100.4" r="8.4"/><circle cx="426.1" cy="130.4" r="8.4"/><circle cx="339.5" cy="100.4" r="8.4"/><circle cx="304.8" cy="120.4" r="8.4"/><circle cx="270.2" cy="140.4" r="8.4"/><circle cx="270.2" cy="160.4" r="8.4"/><circle cx="287.5" cy="170.4" r="8.4"/><circle cx="218.2" cy="150.4" r="8.4"/><circle cx="183.6" cy="170.4" r="8.4"/><circle cx="149.0" cy="190.4" r="8.4"/><circle cx="218.2" cy="230.4" r="8.4"/><circle cx="235.6" cy="240.4" r="8.4"/><circle cx="166.3" cy="80.4" r="8.4"/><circle cx="200.9" cy="100.4" r="8.4"/><circle cx="97.0" cy="160.4" r="8.4"/><circle cx="235.6" cy="120.4" r="8.4"/><circle cx="270.2" cy="160.4" r="8.4"/><circle cx="183.6" cy="210.4" r="8.4"/><circle cx="287.5" cy="170.4" r="8.4"/><circle cx="235.6" cy="240.4" r="8.4"/><circle cx="88.3" cy="195.4" r="8.4"/><circle cx="157.6" cy="235.4" r="8.4"/><circle cx="192.3" cy="255.4" r="8.4"/><circle cx="209.6" cy="265.4" r="8.4"/><circle cx="53.7" cy="195.4" r="8.4"/><circle cx="88.3" cy="235.4" r="8.4"/><circle cx="209.6" cy="305.4" r="8.4"/><circle cx="53.7" cy="235.4" r="8.4"/><circle cx="88.3" cy="275.4" r="8.4"/><circle cx="209.6" cy="345.4" r="8.4"/><circle cx="88.3" cy="315.4" r="8.4"/><circle cx="209.6" cy="385.4" r="8.4"/><circle cx="88.3" cy="355.4" r="8.4"/><circle cx="209.6" cy="425.4" r="8.4"/><circle cx="88.3" cy="395.4" r="8.4"/><circle cx="209.6" cy="465.4" r="8.4"/><circle cx="53.7" cy="415.4" r="8.4"/><circle cx="88.3" cy="435.4" r="8.4"/><circle cx="209.6" cy="505.4" r="8.4"/><circle cx="19.1" cy="255.4" r="8.4"/><circle cx="53.7" cy="175.4" r="8.4"/><circle cx="157.6" cy="235.4" r="8.4"/><circle cx="244.2" cy="275.4" r="8.4"/><circle cx="382.8" cy="195.4" r="8.4"/><circle cx="278.9" cy="295.4" r="8.4"/><circle cx="348.1" cy="255.4" r="8.4"/><circle cx="278.9" cy="335.4" r="8.4"/><circle cx="348.1" cy="295.4" r="8.4"/><circle cx="244.2" cy="395.4" r="8.4"/><circle cx="382.8" cy="315.4" r="8.4"/><circle cx="278.9" cy="415.4" r="8.4"/><circle cx="348.1" cy="375.4" r="8.4"/><circle cx="244.2" cy="515.4" r="8.4"/><circle cx="382.8" cy="435.4" r="8.4"/><circle cx="434.7" cy="405.4" r="8.4"/><circle cx="244.2" cy="275.4" r="8.4"/><circle cx="278.9" cy="295.4" r="8.4"/><circle cx="278.9" cy="335.4" r="8.4"/><circle cx="278.9" cy="415.4" r="8.4"/><circle cx="348.1" cy="255.4" r="8.4"/><circle cx="348.1" cy="295.4" r="8.4"/><circle cx="348.1" cy="375.4" r="8.4"/><circle cx="382.8" cy="195.4" r="8.4"/><circle cx="417.4" cy="175.4" r="8.4"/><circle cx="417.4" cy="395.4" r="8.4"/><circle cx="452.1" cy="155.4" r="8.4"/><circle cx="313.5" cy="435.4" r="8.4"/></g>
</svg>
